<svg width="24" height="24" viewBox="0 -14 512.001 512" xmlns="http://www.w3.org/2000/svg">
  <path
    d="m292.3125 378.558594h-72.625s-.582031 50.535156-25.492188 81.972656c-5.273437 6.660156-.378906 16.484375 8.117188 16.484375h107.375c8.492188 0 13.390625-9.824219 8.113281-16.484375-24.90625-31.4375-25.488281-81.972656-25.488281-81.972656zm0 0"
    fill="#bddff4" />
  <path
    d="m309.691406 477.015625h-26.179687c8.503906 0 13.398437-9.824219 8.121093-16.484375-24.90625-31.433594-25.492187-81.972656-25.492187-81.972656h26.167969s.582031 50.539062 25.492187 81.972656c5.273438 6.660156.382813 16.484375-8.109375 16.484375zm0 0"
    fill="#adc9e2" />
  <path
    d="m504.496094 65.234375v322.066406c0 5.644531-4.558594 10.207031-10.203125 10.207031h-476.59375c-5.632813 0-10.203125-4.5625-10.203125-10.207031v-322.066406c0-8.449219 6.855468-15.304687 15.304687-15.304687h466.390625c8.460938-.003907 15.304688 6.855468 15.304688 15.304687zm0 0"
    fill="#e3f4ff" />
  <path d="m50.527344 49.933594h410.941406v298.710937h-410.941406zm0 0" fill="#bddff4" />
  <path
    d="m504.5 65.230469v322.070312c0 5.648438-4.566406 10.207031-10.203125 10.207031h-32.207031c5.636718 0 10.207031-4.558593 10.207031-10.207031v-322.070312c0-8.445313-6.855469-15.296875-15.308594-15.296875h32.207031c8.453126 0 15.304688 6.851562 15.304688 15.296875zm0 0"
    fill="#bddff4" />
  <path
    d="m504.5 336.570312v50.734376c0 5.644531-4.566406 10.203124-10.203125 10.203124h-476.597656c-5.636719 0-10.207031-4.558593-10.207031-10.203124v-50.734376zm0 0"
    fill="#4e7693" />
  <path
    d="m504.5 336.570312v50.734376c0 5.644531-4.566406 10.203124-10.203125 10.203124h-32.207031c5.636718 0 10.207031-4.558593 10.207031-10.203124v-50.734376zm0 0"
    fill="#38627c" />
  <path
    d="m62.601562 17.566406v319.003906h386.792969v-319.003906c0-5.558594-4.507812-10.066406-10.066406-10.066406h-366.664063c-5.558593 0-10.0625 4.507812-10.0625 10.066406zm0 0"
    fill="#fdb659" />
  <path d="m426.304688 7.5v329.070312h23.09375v-319.003906c0-5.558594-4.507813-10.066406-10.066407-10.066406zm0 0"
    fill="#fd9e28" />
  <path d="m62.605469 113.257812h386.796875v223.3125h-386.796875zm0 0" fill="#32dfb7" />
  <path d="m426.3125 113.257812h23.089844v223.3125h-23.089844zm0 0" fill="#21c69c" />
  <path
    d="m62.597656 17.566406v40.183594h386.800782v-40.183594c0-5.558594-4.507813-10.066406-10.066407-10.066406h-366.667969c-5.558593 0-10.066406 4.507812-10.066406 10.066406zm0 0"
    fill="#618baa" />
  <path
    d="m62.597656 17.566406v40.183594h113.542969v-50.25h-103.476563c-5.558593 0-10.066406 4.507812-10.066406 10.066406zm0 0"
    fill="#fd6096" />
  <path d="m426.304688 7.5v50.246094h23.09375v-40.179688c0-5.558594-4.507813-10.066406-10.066407-10.066406zm0 0"
    fill="#4e7693" />
  <path d="m230.996094 148.660156h171.574218v78.5h-171.574218zm0 0" fill="#fd6096" />
  <path
    d="m489.195312 42.433594h-32.300781v-24.867188c0-9.6875-7.878906-17.566406-17.5625-17.566406h-86.753906c-4.140625 0-7.5 3.359375-7.5 7.5 0 4.144531 3.359375 7.5 7.5 7.5h86.753906c1.414063 0 2.5625 1.152344 2.5625 2.566406v32.679688h-258.253906v-35.246094h131.503906c4.140625 0 7.5-3.355469 7.5-7.5 0-4.140625-3.359375-7.5-7.5-7.5h-242.480469c-9.683593 0-17.5625 7.878906-17.5625 17.566406v24.863282h-32.296874c-12.574219.003906-22.804688 10.234374-22.804688 22.808593v322.066407c0 9.761718 7.941406 17.703124 17.703125 17.703124h191.472656c-3.015625 15.980469-9.003906 35.90625-20.855469 50.867188-4.214843 5.320312-4.992187 12.4375-2.023437 18.574219 3.003906 6.207031 9.140625 10.066406 16.015625 10.066406h107.375c6.878906 0 13.015625-3.855469 16.015625-10.066406 2.96875-6.136719 2.195313-13.253907-2.019531-18.574219-11.847656-14.953125-17.832032-34.847656-20.855469-50.867188h42.953125c4.144531 0 7.5-3.355468 7.5-7.5 0-4.140624-3.355469-7.5-7.5-7.5h-328.078125c-1.488281 0-2.703125-1.210937-2.703125-2.703124v-43.234376h482v43.234376c0 1.492187-1.214844 2.703124-2.703125 2.703124h-115.855469c-4.140625 0-7.5 3.359376-7.5 7.5 0 4.144532 3.359375 7.5 7.5 7.5h115.855469c9.761719 0 17.703125-7.941406 17.703125-17.703124v-322.066407c0-12.574219-10.230469-22.804687-22.804688-22.804687zm-177.269531 422.757812c.816407 1.03125.597657 2.054688.273438 2.730469-.230469.476563-.941407 1.59375-2.511719 1.59375h-107.375c-1.570312 0-2.28125-1.117187-2.511719-1.59375-.328125-.675781-.542969-1.699219.273438-2.730469 14.421875-18.199218 21.171875-42.015625 24.339843-60.183594h63.171876c3.175781 18.21875 9.933593 42 24.339843 60.183594zm129.96875-359.433594h-371.792969v-40.511718h371.792969zm-369.230469-90.757812h95.976563v35.246094h-98.539063v-32.679688c0-1.414062 1.148438-2.566406 2.5625-2.566406zm-57.664062 50.238281c0-4.304687 3.5-7.804687 7.804688-7.804687h32.296874v124.652344c0 4.140624 3.355469 7.5 7.5 7.5 4.140626 0 7.5-3.359376 7.5-7.5v-61.328126h371.792969v208.3125h-371.792969v-109.65625c0-4.144531-3.359374-7.5-7.5-7.5-4.144531 0-7.5 3.355469-7.5 7.5v109.65625h-40.101562zm441.894531 263.832031v-271.636718h32.300781c4.304688 0 7.804688 3.5 7.804688 7.804687v263.832031zm0 0" />
  <path
    d="m100.863281 94.78125h122.1875c4.144531 0 7.5-3.359375 7.5-7.5s-3.355469-7.5-7.5-7.5h-122.1875c-4.140625 0-7.5 3.359375-7.5 7.5s3.359375 7.5 7.5 7.5zm0 0" />
  <path
    d="m275.714844 94.78125h17.121094c4.140624 0 7.5-3.359375 7.5-7.5s-3.359376-7.5-7.5-7.5h-17.121094c-4.144532 0-7.5 3.359375-7.5 7.5s3.355468 7.5 7.5 7.5zm0 0" />
  <path
    d="m315.144531 94.78125h17.125c4.140625 0 7.5-3.359375 7.5-7.5s-3.359375-7.5-7.5-7.5h-17.125c-4.140625 0-7.5 3.359375-7.5 7.5s3.359375 7.5 7.5 7.5zm0 0" />
  <path
    d="m354.578125 94.78125h17.121094c4.144531 0 7.5-3.359375 7.5-7.5s-3.355469-7.5-7.5-7.5h-17.121094c-4.144531 0-7.5 3.359375-7.5 7.5s3.355469 7.5 7.5 7.5zm0 0" />
  <path
    d="m394.011719 94.78125h17.121093c4.140626 0 7.5-3.359375 7.5-7.5s-3.359374-7.5-7.5-7.5h-17.121093c-4.144531 0-7.5 3.359375-7.5 7.5s3.355469 7.5 7.5 7.5zm0 0" />
  <path
    d="m98.722656 40.449219h.046875c4.121094 0 7.472657-3.328125 7.5-7.453125.023438-4.144532-3.316406-7.519532-7.457031-7.546875h-.082031c-.015625 0-.03125 0-.046875 0-4.121094 0-7.433594 3.332031-7.457032 7.457031-.023437 4.140625 3.355469 7.519531 7.496094 7.542969zm0 0" />
  <path
    d="m120.179688 40.511719c4.140624 0 7.5-3.355469 7.5-7.5 0-4.140625-3.359376-7.5-7.5-7.5h-.082032c-4.140625 0-7.457031 3.359375-7.457031 7.5 0 4.144531 3.398437 7.5 7.539063 7.5zm0 0" />
  <path
    d="m141.546875 40.574219h.046875c4.121094 0 7.472656-3.328125 7.496094-7.457031.027344-4.140626-3.3125-7.519532-7.453125-7.542969h-.082031c-.015626 0-.03125 0-.046876 0-4.121093 0-7.433593 3.328125-7.457031 7.457031-.023437 4.140625 3.355469 7.519531 7.496094 7.542969zm0 0" />
  <path
    d="m246.941406 359.539062c-4.144531 0-7.5 3.355469-7.5 7.5 0 4.140626 3.355469 7.5 7.5 7.5h18.113282c4.140624 0 7.5-3.359374 7.5-7.5 0-4.144531-3.359376-7.5-7.5-7.5zm0 0" />
  <path
    d="m100.863281 156.160156h98.21875c4.140625 0 7.5-3.355468 7.5-7.5 0-4.140625-3.359375-7.5-7.5-7.5h-98.21875c-4.140625 0-7.5 3.359375-7.5 7.5 0 4.144532 3.359375 7.5 7.5 7.5zm0 0" />
  <path
    d="m100.863281 182.328125h98.21875c4.140625 0 7.5-3.359375 7.5-7.5s-3.359375-7.5-7.5-7.5h-98.21875c-4.140625 0-7.5 3.359375-7.5 7.5s3.359375 7.5 7.5 7.5zm0 0" />
  <path
    d="m100.863281 208.496094h98.21875c4.140625 0 7.5-3.359375 7.5-7.5s-3.359375-7.5-7.5-7.5h-98.21875c-4.140625 0-7.5 3.359375-7.5 7.5s3.359375 7.5 7.5 7.5zm0 0" />
  <path
    d="m100.863281 234.664062h98.21875c4.140625 0 7.5-3.359374 7.5-7.503906 0-4.140625-3.359375-7.5-7.5-7.5h-98.21875c-4.140625 0-7.5 3.359375-7.5 7.5 0 4.144532 3.359375 7.503906 7.5 7.503906zm0 0" />
  <path
    d="m230.996094 234.664062h171.574218c4.144532 0 7.5-3.359374 7.5-7.503906v-78.5c0-4.140625-3.355468-7.5-7.5-7.5h-171.574218c-4.140625 0-7.5 3.359375-7.5 7.5v78.5c0 4.144532 3.359375 7.503906 7.5 7.503906zm7.5-74.324218 129.65625 59.320312h-129.65625zm156.574218 55.144531-129.652343-59.324219h129.652343zm0 0" />
  <path
    d="m402.570312 245.757812h-47.992187c-4.144531 0-7.5 3.359376-7.5 7.5 0 4.144532 3.355469 7.5 7.5 7.5h47.992187c4.144532 0 7.5-3.355468 7.5-7.5 0-4.140624-3.355468-7.5-7.5-7.5zm0 0" />
  <path
    d="m100.863281 287.757812h301.707031c4.144532 0 7.5-3.355468 7.5-7.5 0-4.140624-3.355468-7.5-7.5-7.5h-301.707031c-4.140625 0-7.5 3.359376-7.5 7.5 0 4.144532 3.359375 7.5 7.5 7.5zm0 0" />
  <path
    d="m100.863281 310.757812h301.707031c4.144532 0 7.5-3.355468 7.5-7.5 0-4.140624-3.355468-7.5-7.5-7.5h-301.707031c-4.140625 0-7.5 3.359376-7.5 7.5 0 4.144532 3.359375 7.5 7.5 7.5zm0 0" />
</svg>